<?xml version="1.0" standalone="no"?>
<!DOCTYPE svg PUBLIC "-//W3C//DTD SVG 20010904//EN"
 "http://www.w3.org/TR/2001/REC-SVG-20010904/DTD/svg10.dtd">
<svg version="1.0" xmlns="http://www.w3.org/2000/svg"
 width="225.000000pt" height="225.000000pt" viewBox="0 0 225.000000 225.000000"
 preserveAspectRatio="xMidYMid meet">
<metadata>
Created by potrace 1.14, written by Peter Selinger 2001-2017
</metadata>
<g transform="translate(0.000000,225.000000) scale(0.100000,-0.100000)"
fill="#000000" stroke="none">
<path d="M0 1125 l0 -1125 1125 0 1125 0 0 1125 0 1125 -1125 0 -1125 0 0
-1125z m689 579 c48 -20 89 -60 112 -109 15 -33 19 -65 19 -187 l0 -148 -105
0 -105 0 0 124 c0 102 -3 128 -16 141 -23 22 -56 15 -71 -15 -15 -30 -19 -644
-4 -683 13 -32 39 -41 67 -22 22 14 24 22 26 141 l3 126 103 1 102 2 0 -108
c0 -75 -4 -117 -15 -136 -8 -16 -63 -72 -121 -125 l-108 -96 -58 0 c-32 0 -73
6 -91 13 -44 19 -103 87 -116 134 -7 24 -11 178 -11 409 0 309 3 379 15 415
37 104 133 154 274 143 35 -3 80 -12 100 -20z m1271 -104 l0 -110 -70 0 -70 0
0 -440 0 -440 -32 0 c-27 0 -48 14 -115 76 l-83 76 0 364 0 364 -70 0 -70 0 0
110 0 110 255 0 255 0 0 -110z m-546 -320 c49 -231 87 -422 85 -424 -2 -2 -74
61 -159 140 -85 79 -157 144 -160 144 -4 0 -74 -60 -156 -134 -82 -74 -150
-133 -152 -131 -2 2 34 188 79 414 l82 411 146 0 146 0 89 -420z m17 -440
l242 -225 -252 -3 c-138 -1 -364 -1 -501 0 l-251 3 253 227 c139 125 256 227
260 225 4 -1 116 -103 249 -227z"/>
<path d="M1152 1348 c-12 -73 -22 -136 -22 -140 0 -5 23 -8 50 -8 28 0 50 3
50 8 1 23 -45 272 -50 272 -3 0 -16 -60 -28 -132z"/>
</g>
</svg>
